<?xml version="1.0" encoding="utf-8"?>
<!-- Generator: Adobe Illustrator 16.0.0, SVG Export Plug-In . SVG Version: 6.00 Build 0)  -->
<!DOCTYPE svg PUBLIC "-//W3C//DTD SVG 1.1//EN" "http://www.w3.org/Graphics/SVG/1.1/DTD/svg11.dtd">
<svg version="1.1" id="Ñëîé_1" xmlns="http://www.w3.org/2000/svg" xmlns:xlink="http://www.w3.org/1999/xlink" x="0px" y="0px"
	 width="21.489px" height="23.774px" viewBox="0 0 21.489 23.774" enable-background="new 0 0 21.489 23.774" xml:space="preserve">
<g>
	<path fill="#FFFFFF" d="M4.641,14.159l0.068-0.168c0.114-0.27,0.235-0.542,0.371-0.833c0.554-1.182,1.21-2.333,1.961-3.442
		L4.474,9.584L0,16.502l4.434-1.822C4.502,14.504,4.572,14.329,4.641,14.159z"/>
	<path fill="#FFFFFF" d="M11.018,18.238c-0.269,0.18-0.52,0.341-0.769,0.495l-0.156,0.094c-0.156,0.094-0.318,0.19-0.483,0.284
		l-1.118,4.662l6.147-5.486l-0.525-2.517C13.134,16.684,12.099,17.509,11.018,18.238z"/>
	<path fill="#FFFFFF" d="M17.29,1.438c-0.182,0.088-0.361,0.178-0.539,0.27c-0.785,0.406-1.527,0.848-2.233,1.322
		c-1.961,1.32-3.651,2.873-5.137,4.6c-1.484,1.729-2.759,3.637-3.763,5.777c-0.125,0.268-0.246,0.54-0.362,0.815
		c-0.112,0.278-0.228,0.554-0.333,0.84c-0.071,0.189-0.139,0.381-0.205,0.574l3.905,3.343c0.181-0.096,0.359-0.192,0.536-0.292
		c0.266-0.147,0.521-0.304,0.779-0.458c0.254-0.157,0.503-0.318,0.75-0.483c1.959-1.322,3.647-2.876,5.127-4.608
		c1.478-1.734,2.752-3.643,3.754-5.784c0.359-0.77,0.682-1.572,0.962-2.41c0.064-0.189,0.125-0.38,0.184-0.574
		c0.004-0.014,0.009-0.028,0.013-0.043L17.33,1.419C17.317,1.426,17.303,1.432,17.29,1.438z M17.322,7.471
		c-0.608,0.711-1.678,0.794-2.389,0.185c-0.71-0.608-0.793-1.678-0.185-2.389c0.608-0.71,1.678-0.793,2.389-0.185
		S17.93,6.76,17.322,7.471z"/>
	<path fill="#FFFFFF" d="M21.489,0c-0.728,0.126-1.377,0.32-2.006,0.532c-0.555,0.191-1.085,0.403-1.597,0.631l3.009,2.577
		c0.146-0.541,0.273-1.098,0.377-1.676C21.384,1.41,21.475,0.739,21.489,0z"/>
</g>
<path fill="#FFFFFF" d="M2.169,18.772c-0.407,0.506-0.558,1.136-0.47,1.731l0,0c0.104-1.527,1.861-0.56,0.291,0.652
	c-1.905,1.471-1.229,2.943-1.229,2.943c-0.213-1.961,1.758-2.59,2.071-1.962c0.31,0.623-0.991,1.017-0.991,1.017
	c1.656,0.114,2.656-1.025,3.004-1.511c0.159-0.223,0.192-0.003,0.197,0.045c0.025,0.309-0.12,0.49-0.12,0.49v0
	c0.277-0.14,0.53-0.34,0.738-0.598c0.775-0.964,0.622-2.375-0.342-3.149C4.354,17.655,2.944,17.808,2.169,18.772z M5.603,19.124
	l0.002,0.001l-0.018,0.021l-0.001-0.001L5.603,19.124z"/>
</svg>
