<?xml version="1.0" encoding="utf-8"?>
<!-- Generator: Adobe Illustrator 25.0.0, SVG Export Plug-In . SVG Version: 6.00 Build 0)  -->
<svg version="1.1" id="Capa_1" xmlns="http://www.w3.org/2000/svg" xmlns:xlink="http://www.w3.org/1999/xlink" x="0px"
	y="0px" viewBox="0 0 13.7 33" style="enable-background:new 0 0 13.7 33;" xml:space="preserve">
	<style type="text/css">
		.st0 {
			fill: #7565AA;
		}

		.st1 {
			fill: none;
			stroke: #2C2649;
			stroke-width: 1.0051;
			stroke-linecap: round;
			stroke-linejoin: round;
			stroke-miterlimit: 10;
		}
	</style>
	<g>
		<g>
			<path class="st0" d="M9.4,0.8c-7.8,7.8-11,19.3-8.4,30c0.7,3,5.3,1.7,4.6-1.3c-2.2-9.1,0.6-18.8,7.2-25.3C14.9,2,11.6-1.3,9.4,0.8
			z" />
			<path class="st1" d="M4.5,27.6C3.4,28,2,27.9,0.9,27.4" />
			<path class="st1" d="M1.1,21.3c0.8,0.7,1.9,1,2.9,1" />
			<path class="st1" d="M2.2,14.5c0.6,0.9,1.6,1.4,2.7,1.4" />
			<path class="st1" d="M4.3,9.4C4.9,10.3,5.9,10.9,7,11" />
		</g>
	</g>
</svg>