<svg xmlns="http://www.w3.org/2000/svg" xmlns:xlink="http://www.w3.org/1999/xlink" viewBox="0 0 1723.25 505.54"><defs><linearGradient id="linear-gradient" x1="374.18" y1="23.26" x2="674.21" y2="557.31" gradientTransform="matrix(1, 0, 0, -1, 0, 505.89)" gradientUnits="userSpaceOnUse"><stop offset="0" stop-color="#f49a13"/><stop offset="0.03" stop-color="#f6851f"/><stop offset="0.08" stop-color="#f9692e"/><stop offset="0.13" stop-color="#fc533b"/><stop offset="0.19" stop-color="#fe4443"/><stop offset="0.26" stop-color="#ff3b48"/><stop offset="0.35" stop-color="#ff384a"/><stop offset="0.46" stop-color="#f4324d"/><stop offset="0.65" stop-color="#d62257"/><stop offset="0.9" stop-color="#a50865"/><stop offset="0.97" stop-color="#96006a"/></linearGradient><linearGradient id="linear-gradient-2" x1="317.71" y1="54.98" x2="617.74" y2="589.04" xlink:href="#linear-gradient"/></defs><title>idxboost-logo</title><g id="Layer_2" data-name="Layer 2"><g id="Layer_1-2" data-name="Layer 1"><text transform="translate(819.47 429.05)" style="isolation:isolate;font-size:55.269309997558594px;fill:#515151;font-family:NexaSlab-Bold, Nexa Slab Bold;letter-spacing:0.07999713980408486em">MLS SEARCH</text><text transform="translate(1249.85 429.05)" style="isolation:isolate;font-size:55.269309997558594px;fill:#515151;font-family:NexaSlab-Bold, Nexa Slab Bold;letter-spacing:0.05399696504501012em"> </text><text transform="translate(1266.32 429.05)" style="isolation:isolate;font-size:55.269309997558594px;fill:#515151;font-family:NexaSlab-Bold, Nexa Slab Bold;letter-spacing:0.08000597438606212em">TECH</text><text transform="translate(1443.57 429.05)" style="isolation:isolate;font-size:55.269309997558594px;fill:#515151;font-family:NexaSlab-Bold, Nexa Slab Bold;letter-spacing:0.06899808524239677em">N</text><text transform="translate(1494.47 429.05)" style="isolation:isolate;font-size:55.269309997558594px;fill:#515151;font-family:NexaSlab-Bold, Nexa Slab Bold;letter-spacing:0.06799977747896645em">O</text><text transform="translate(1542.77 429.05)" style="isolation:isolate;font-size:55.269309997558594px;fill:#515151;font-family:NexaSlab-Bold, Nexa Slab Bold;letter-spacing:0.07899883204065454em">LO</text><text transform="translate(1631.59 429.05)" style="isolation:isolate;font-size:55.269309997558594px;fill:#515151;font-family:NexaSlab-Bold, Nexa Slab Bold;letter-spacing:0.07100353535123469em">G</text><text transform="translate(1675.92 429.05)" style="isolation:isolate;font-size:55.269309997558594px;fill:#515151;font-family:NexaSlab-Bold, Nexa Slab Bold;letter-spacing:0.014011647015933583em">Y</text><path d="M379.39,118A20.41,20.41,0,1,1,359,97.54h0A20.41,20.41,0,0,1,379.39,118Z" style="fill:#ff384a"/><path d="M496.11,204.35c-32.89.08-59.93,21.48-59.93,62.13,0,39,27.14,61.45,60.12,61.45,33.32,0,59.77-24.86,59.77-61.79C556.07,229.61,529.36,204.43,496.11,204.35Z" style="fill:url(#linear-gradient)"/><path d="M568.1,0A252,252,0,0,0,382.56,81.11h0C524.22-17.74,563.4,205.2,345.78,152.79,81.71,89.19,0,252.77,0,252.77c157.41-157.4,352.12-28.51,319.05,43.37-32.82,71.32-159.49-15.25-159.49-15.25C266.62,434.62,437.52,442,505,438.28c30.74-1.81,13.81,16.65,10,20.52-25.41,24-51.55,24.09-51.55,24.09h0a251.78,251.78,0,0,0,104.7,22.65c139.6,0,252.77-113.17,252.77-252.77S707.7,0,568.1,0ZM404,352.54H320v-26h28v-120H321v-26h55v146h28Zm322-1V329.63L693.11,283.4l-32.54,43.14H684v25H613v-25h-3v25H560.78l-3.44-31.16c-13.77,22.94-38.2,33.9-63.67,33.9-47.83,0-86-31.51-86-87.3,0-57.2,38.2-87.67,85.69-87.67,24.44,0,51.62,10.61,63.67,33.56V135.54H529v-25h56v216h45.16L676.88,264l-39.52-58.42H614v-25h53v22.19l28.56,44,30-41.15H703v-25h75v25H756.39l-43.94,59.29,43.94,61.71H780v25Z" style="fill:url(#linear-gradient-2)"/><path d="M830.38,353.56l5.47-31h27.21l32-181h-26.6l5.29-30h60.63L917,209.71c13.09-19.36,43.36-30.42,65.47-30.42,49.08,0,81.88,29.39,71.39,88.86-10,57.1-53.26,88.52-102.95,88.15-23.15,0-46.21-8.29-54.7-28.69l-6.65,25.93ZM909,267.35c-6.39,36.24,16.51,57,45.48,57,30.35,0,58.14-20.71,64.41-56.26,6.63-37.63-14.79-57-45.14-57-27.58,0-58.42,20.41-64.77,56.31Z" style="fill:#e32e61"/><path d="M1169.17,178.69c53.8,0,82.69,37.62,73.5,89.74-8.88,50.4-51.79,88.37-104.91,88.37-52.76,0-82.28-38-73.39-88.37C1073.5,216.66,1117.09,178.69,1169.17,178.69ZM1164,209.75c-32.76,0-59.44,24.17-65.53,58.68-5.6,31.76,11.81,56.27,44.92,56.27,33.45,0,59.5-24.51,65.44-56.27C1215,233.92,1195.77,209.75,1164,209.75Z" style="fill:#e32e61"/><path d="M1357.81,178.69c53.81,0,82.69,37.62,73.5,89.74-8.88,50.4-51.79,88.37-104.9,88.37-52.77,0-82.28-38-73.4-88.37C1262.14,216.66,1305.74,178.69,1357.81,178.69Zm-5.13,31.06c-32.76,0-59.44,24.17-65.53,58.68-5.6,31.76,11.81,56.27,44.92,56.27,33.45,0,59.5-24.51,65.44-56.27C1403.6,233.92,1384.41,209.75,1352.68,209.75Z" style="fill:#e32e61"/><path d="M1587.33,236.54h-28.86l2.29-24.73c-6.2-3.78-25.1-5.49-33-5.49-21.15-.7-39.94,8.58-42.39,24.38-2.2,14.43,15.92,18.91,34.46,20.61,31.25,3.78,73.07,9.95,64.62,53.94-7,34-41.53,52.56-82.71,52.56-27.8,0-47.65-6.18-69.13-20.62l8.56-44.65H1471l-2.94,24.38c12.24,6.53,25.83,9.28,39.9,9.28,14.41,0,38.81-2.4,43.41-22.32,3.12-15.81-13.75-21.31-38.72-23.71-33.84-4.47-66.68-13.06-60.27-49.47,6.33-37.82,48.57-53.59,79.75-53.24,22,0,46.11,5.15,63.29,14.76Z" style="fill:#e32e61"/><path d="M1682.37,135.11l-8.54,48.43h49.42l-5.11,29h-49.77l-14.5,82.23c-3.19,18.08,2.05,29,19.09,29,7.17,0,14.68-2,22.1-5.46l4.61,28c-12.5,5.11-22.12,7.5-33.77,7.84-36.31,1-52.22-20.81-45.46-59.36l14.5-82.23h-32.73l5.12-29h32.73l7.9-44.7Z" style="fill:#e32e61"/></g></g></svg>